<svg width="741" height="465" viewBox="0 0 741 465" fill="none" xmlns="http://www.w3.org/2000/svg">
<path d="M359.319 458.266L14.4026 255.421C3.41392 249.209 -5.99308 239.209 4.70427 232.645L350.87 34.1061C356.073 30.8969 363.96 28.8057 369.226 31.8493L731.354 240.969C742.343 247.304 744.299 265.048 733.31 271.384L404.794 457.873C397.905 461.873 390.085 464.014 382.109 464.083C374.133 464.152 366.277 462.147 359.319 458.266Z" fill="#FF70B0"/>
<path style="mix-blend-mode:multiply" d="M453.265 225.75L584.859 304.429C584.859 304.429 397.343 423.192 370.287 434.497L227.059 352.092" fill="url(#paint0_linear_3_3)"/>
<path style="mix-blend-mode:multiply" d="M540.363 174.506L530.956 170.075C530.919 170.607 530.828 171.134 530.685 171.649C526.523 185.873 520.945 199.497 515.805 213.348C515.805 213.535 515.638 213.7 515.576 213.866C557.2 241.962 618.47 283.206 634.953 293.538L691.145 260.576L540.363 174.506Z" fill="url(#paint1_linear_3_3)"/>
<path d="M594.162 24.5405C622.008 26.611 620.551 75.8472 622.445 96.2622C622.924 101.397 615.681 103.115 615.202 97.9393C613.642 80.9406 614.682 57.896 606.024 42.9264C603.34 38.2885 600.176 33.7749 594.703 33.3401C592.994 33.2891 591.295 33.6133 589.727 34.2897C588.159 34.966 586.759 35.9779 585.629 37.2533C583.194 39.655 581.882 49.1793 581.466 52.0159C580.022 62.5729 579.861 73.2646 580.988 83.86C581.487 88.9948 574.244 90.7133 573.745 85.537C572.163 69.4286 569.374 22.677 594.162 24.5405Z" fill="#8CCC00"/>
<path d="M552.517 57.5648L544.15 72.8243L527.418 76.634L539.967 123.903L575.556 98.7468" fill="#DD842A"/>
<path d="M638.366 109.41L552.517 57.5648L555.326 134.566L620.926 141.44L638.366 109.41Z" fill="#C13D3D"/>
<path d="M607.648 120.839L594.39 266.477L514.14 213.866L527.418 76.6339L607.648 120.839Z" fill="#4940BF"/>
<path d="M607.648 120.839L616.722 109.41H638.366L647.44 236.745L624.131 248.464L594.391 266.477L607.648 120.839Z" fill="#4940BF"/>
<path opacity="0.14" d="M607.648 120.839L616.722 109.41H638.366L647.44 236.745L624.131 248.464L594.391 266.477L607.648 120.839Z" fill="#42210B"/>
<path d="M558.323 48.8894C586.232 49.1793 587.46 98.3741 590.478 118.644C591.227 123.738 584.109 125.932 583.339 120.715C580.842 103.84 580.613 80.7749 571.164 66.385C567.293 60.4841 560.488 55.5357 553.807 59.3868C547.813 62.8445 547.73 70.5881 547.147 77.048C546.279 87.6603 546.698 98.3381 548.396 108.851C549.166 113.944 542.049 116.118 541.258 110.921C538.864 95.1441 533.474 48.6409 558.323 48.8894Z" fill="#8CCC00"/>
<path d="M527.001 275.111V281.716L523.651 285.836" fill="#ADCEE1"/>
<path d="M393.18 194.465L523.151 274.614C524.341 275.346 525.319 276.374 525.988 277.596C526.658 278.819 526.995 280.194 526.968 281.585C526.941 282.977 526.549 284.338 525.833 285.533C525.116 286.729 524.098 287.718 522.881 288.403L325.666 399.382C322.91 400.933 319.792 401.736 316.625 401.711C313.458 401.686 310.353 400.832 307.622 399.237L178.234 323.581C168.827 315.9 169.535 301.427 178.234 300.806L374.45 194.155C377.311 192.527 380.562 191.696 383.858 191.751C387.154 191.805 390.375 192.743 393.18 194.465Z" fill="#88D3D8"/>
<path d="M393.18 188.937L523.151 269.086C524.341 269.818 525.319 270.846 525.988 272.068C526.658 273.291 526.995 274.665 526.968 276.057C526.941 277.449 526.549 278.81 525.833 280.005C525.116 281.201 524.098 282.19 522.881 282.875L325.666 393.853C322.91 395.405 319.792 396.208 316.625 396.183C313.458 396.157 310.353 395.304 307.622 393.708L178.234 318.053C176.719 317.174 175.461 315.916 174.586 314.403C173.712 312.889 173.252 311.175 173.252 309.429C173.252 307.684 173.712 305.969 174.586 304.456C175.461 302.943 176.719 301.684 178.234 300.806L374.45 188.709C377.304 187.069 380.55 186.224 383.846 186.264C387.143 186.304 390.367 187.228 393.18 188.937Z" fill="white"/>
<path d="M387.915 177.984C387.915 177.984 333.95 4.68451 334.283 4.68451C334.616 4.68451 332.597 -3.0177 322.94 1.33033L115.819 122.64C115.819 122.64 105.767 126.781 107.744 135.995C109.721 145.208 160.503 305.568 160.503 305.568C161.562 307.09 163.082 308.236 164.841 308.839C166.6 309.443 168.507 309.471 170.284 308.922C176.528 306.976 383.066 187.654 383.066 187.654C384.959 186.958 386.515 185.571 387.416 183.775C388.317 181.978 388.495 179.907 387.915 177.984Z" fill="#053855"/>
<path d="M330.849 17.2731L118.733 140.301L162.729 287.244L377.571 167.88L330.849 17.2731Z" fill="#4940BF"/>
<path d="M401.214 207.344L448.728 236.786C449.572 237.306 450.266 238.036 450.742 238.904C451.217 239.772 451.457 240.748 451.438 241.736C451.419 242.724 451.142 243.69 450.634 244.539C450.126 245.389 449.404 246.092 448.54 246.58L277.882 343.313C275.335 344.774 272.446 345.542 269.505 345.542C266.565 345.542 263.676 344.774 261.129 343.313C250.161 336.956 231.284 325.506 219.733 318.467C218.705 317.84 217.858 316.96 217.274 315.91C216.69 314.861 216.39 313.678 216.402 312.479C216.415 311.28 216.74 310.104 217.346 309.067C217.951 308.029 218.817 307.166 219.858 306.562C254.365 286.602 366.895 221.485 391.536 207.178C393.009 206.317 394.691 205.878 396.399 205.907C398.106 205.936 399.772 206.433 401.214 207.344Z" fill="#4940BF"/>
<path d="M398.654 287.244L339.069 320.579C338.141 321.092 337.368 321.842 336.83 322.752C336.292 323.662 336.008 324.699 336.008 325.755C336.008 326.811 336.292 327.848 336.83 328.758C337.368 329.668 338.141 330.418 339.069 330.931L374.117 351.326C375.319 352.016 376.683 352.38 378.071 352.38C379.459 352.38 380.823 352.016 382.025 351.326L443.004 316.748C443.766 316.316 444.398 315.69 444.838 314.936C445.278 314.181 445.51 313.324 445.51 312.452C445.51 311.58 445.278 310.723 444.838 309.969C444.398 309.214 443.766 308.589 443.004 308.156L406.563 287.327C405.368 286.624 404.008 286.246 402.619 286.231C401.231 286.217 399.864 286.566 398.654 287.244Z" fill="#4940BF"/>
<path opacity="0.1" d="M401.214 207.344L448.728 236.786C449.572 237.306 450.266 238.036 450.742 238.904C451.217 239.772 451.457 240.748 451.438 241.736C451.419 242.724 451.142 243.69 450.634 244.539C450.126 245.389 449.404 246.092 448.54 246.58L277.882 343.313C275.335 344.774 272.446 345.542 269.505 345.542C266.565 345.542 263.676 344.774 261.129 343.313C250.161 336.956 231.284 325.506 219.733 318.467C218.705 317.84 217.858 316.96 217.274 315.91C216.69 314.861 216.39 313.678 216.402 312.479C216.415 311.28 216.74 310.104 217.346 309.067C217.951 308.029 218.817 307.166 219.858 306.562C254.365 286.602 366.895 221.485 391.536 207.178C393.009 206.317 394.691 205.878 396.399 205.907C398.106 205.936 399.772 206.433 401.214 207.344Z" fill="#053855"/>
<path opacity="0.1" d="M398.654 287.244L339.069 320.579C338.141 321.092 337.368 321.842 336.83 322.752C336.292 323.662 336.008 324.699 336.008 325.755C336.008 326.811 336.292 327.848 336.83 328.758C337.368 329.668 338.141 330.418 339.069 330.931L374.117 351.326C375.319 352.016 376.683 352.38 378.071 352.38C379.459 352.38 380.823 352.016 382.025 351.326L443.004 316.748C443.766 316.316 444.398 315.69 444.838 314.936C445.278 314.181 445.51 313.324 445.51 312.452C445.51 311.58 445.278 310.723 444.838 309.969C444.398 309.214 443.766 308.589 443.004 308.156L406.563 287.327C405.368 286.624 404.008 286.246 402.619 286.231C401.231 286.217 399.864 286.566 398.654 287.244Z" fill="#053855"/>
<path d="M218.818 182.291C227.018 203.865 221.398 225.771 206.331 231.113C191.263 236.455 172.303 223.39 164.103 201.836C155.903 180.283 161.522 158.356 176.59 153.014C191.658 147.672 210.618 160.716 218.818 182.291Z" fill="#79C83B"/>
<path d="M172.532 199.207L175.362 190.966L186.559 201.401L197.943 169.102L206.56 173.243L190.951 216.392L172.532 199.207Z" fill="white"/>
<path d="M351.39 112.909V112.267C351.39 105.227 342.587 100.859 335.552 104.399L236.508 159.267C234.841 160.068 233.247 161.01 231.742 162.083C224.77 167.839 232.2 181.96 245.499 175.79L346.125 120.818C347.658 120.122 348.964 119.011 349.895 117.613C350.826 116.215 351.344 114.585 351.39 112.909Z" fill="#031E28"/>
<path d="M226.06 124.69C226.447 124.376 226.909 124.168 227.402 124.085C227.894 124.003 228.399 124.05 228.868 124.222C229.336 124.393 229.752 124.683 230.073 125.063C230.395 125.443 230.611 125.899 230.701 126.388L229.099 127.858C229.019 127.584 228.873 127.333 228.674 127.127C228.475 126.922 228.228 126.768 227.956 126.678C227.683 126.588 227.393 126.566 227.11 126.613C226.827 126.66 226.56 126.774 226.331 126.947C225.454 127.465 224.785 128.27 224.437 129.224C223.979 130.425 223.843 131.724 224.042 132.993C224.052 134.072 224.485 135.104 225.249 135.871C225.567 136.098 225.949 136.22 226.341 136.22C226.733 136.22 227.116 136.098 227.434 135.871C228.066 135.478 228.594 134.94 228.975 134.303C229.355 133.665 229.576 132.946 229.619 132.206L231.347 131.854C231.323 133.112 230.976 134.344 230.339 135.431C229.701 136.519 228.794 137.426 227.705 138.065C227.171 138.407 226.549 138.588 225.915 138.588C225.28 138.588 224.659 138.407 224.125 138.065C223.495 137.569 222.981 136.94 222.622 136.225C222.262 135.509 222.065 134.724 222.044 133.924C221.755 131.992 222.022 130.018 222.814 128.23C223.479 126.729 224.619 125.486 226.06 124.69Z" fill="white"/>
<path d="M235.946 119.369L240.962 130.632L238.881 131.73L237.757 129.038L234.593 130.798L234.24 134.297L232.158 135.415L233.927 120.404L235.946 119.369ZM234.905 128.251L236.987 127.071L235.363 123.096L234.864 128.23" fill="white"/>
<path d="M252.616 110.176C254.989 108.871 257.528 109.596 258.09 114.172C258.433 115.905 258.25 117.701 257.565 119.331C256.879 120.96 255.722 122.35 254.24 123.323L251.118 125.063L249.578 111.894L252.616 110.176ZM255.53 119.286C256.228 118.024 256.463 116.56 256.196 115.145C255.988 113.489 255.426 112.515 254.677 112.288C254.275 112.183 253.855 112.166 253.445 112.237C253.036 112.309 252.647 112.467 252.304 112.702L251.617 113.075L252.679 121.708L253.366 121.336C254.232 120.842 254.95 120.127 255.447 119.265" fill="white"/>
<path d="M246.29 121.419L249.807 125.746L247.726 126.905L244.354 122.764L243.376 123.303L244.083 128.955L242.21 129.99L240.587 116.863L244.25 114.793C246.185 113.716 247.476 114.607 247.746 116.863C247.866 117.683 247.797 118.519 247.545 119.308C247.293 120.097 246.863 120.819 246.29 121.419ZM244.895 120.011C245.248 119.802 245.532 119.494 245.71 119.126C245.887 118.757 245.952 118.345 245.894 117.94C245.769 116.946 245.311 116.677 244.541 117.112L242.731 118.106L243.105 121.067L244.916 120.073" fill="white"/>
<path d="M294.719 86.8828L296.342 100.03L294.49 101.045L293.491 92.9493L292.43 100.9L291.098 101.645L288.33 95.8066L289.329 103.902L287.456 104.937L285.832 91.8106L287.934 90.6511L291.285 97.5458L292.638 88.0423L294.719 86.8828Z" fill="white"/>
<path d="M284.833 92.3489L282.877 101.48L283.564 107.091L281.712 108.105L281.025 102.515L277.195 96.5727L279.214 95.4754L281.649 99.5749L282.835 93.467L284.833 92.3489Z" fill="white"/>
<path d="M274.552 98.0014L279.568 109.265L277.487 110.383L276.384 107.691L273.199 109.451L272.846 112.95L270.764 114.048L272.533 99.0366L274.552 98.0014ZM273.532 106.884L275.614 105.724L274.011 101.749L273.512 106.884" fill="white"/>
<path d="M266.56 102.453C268.642 101.314 269.89 102.329 270.182 104.73C270.383 105.838 270.238 106.98 269.765 108.002C269.292 109.024 268.515 109.877 267.539 110.445L265.624 111.501L266.269 116.636L264.417 117.65L262.793 104.523L266.56 102.453ZM267.206 108.23C267.632 107.992 267.969 107.624 268.168 107.18C268.367 106.736 268.416 106.24 268.309 105.766C268.163 104.586 267.643 104.275 266.769 104.751L264.916 105.766L265.353 109.244L267.206 108.23Z" fill="white"/>
<path d="M302.96 82.3278L303.252 84.6053L298.923 86.9864L299.256 89.7401L302.732 87.8146L303.002 90.0714L299.527 91.9969L299.984 95.6203L304.459 93.1357L304.73 95.3925L298.403 98.8917L296.779 85.7648L302.96 82.3278Z" fill="white"/>
<path d="M321.296 72.2031L321.566 74.4599L318.798 75.9921L320.151 86.8621L318.278 87.8974L316.946 77.0273L314.157 78.5595L313.887 76.3027L321.296 72.2031Z" fill="white"/>
<path d="M312.305 77.1722L313.928 90.2991L311.951 91.3965L307.206 84.7709L308.288 93.4256L306.436 94.4401L304.813 81.3132L306.769 80.2366L311.514 86.8828L310.432 78.2075L312.305 77.1722Z" fill="white"/>
<path style="mix-blend-mode:multiply" d="M286.186 147.113L431.641 216.413C431.641 216.413 390.475 255.172 363.44 266.477L242.356 176.287" fill="url(#paint2_linear_3_3)"/>
<path d="M442.442 181.711V186.328L441.048 184.03L442.442 181.711Z" fill="#756373"/>
<path d="M248.371 155.706V160.116L251.971 157.735L248.371 155.706Z" fill="#756373"/>
<path d="M251.264 164.92L362.837 228.504C364.759 229.613 366.941 230.197 369.163 230.197C371.385 230.197 373.568 229.613 375.49 228.504L439.591 191.132C440.464 190.627 441.188 189.904 441.691 189.034C442.195 188.164 442.459 187.177 442.459 186.173C442.459 185.169 442.195 184.183 441.691 183.312C441.188 182.442 440.464 181.719 439.591 181.214L327.498 116.884C325.82 115.913 323.913 115.402 321.972 115.402C320.031 115.402 318.125 115.913 316.447 116.884L251.243 155.023C250.376 155.53 249.658 156.255 249.16 157.124C248.662 157.993 248.4 158.976 248.403 159.977C248.405 160.978 248.67 161.96 249.172 162.827C249.674 163.694 250.395 164.416 251.264 164.92Z" fill="#513F2C"/>
<path d="M251.264 160.489L362.836 224.073C364.759 225.182 366.941 225.766 369.163 225.766C371.385 225.766 373.568 225.182 375.49 224.073L439.612 186.639C440.484 186.134 441.209 185.411 441.712 184.541C442.215 183.671 442.48 182.684 442.48 181.68C442.48 180.676 442.215 179.69 441.712 178.819C441.209 177.949 440.484 177.226 439.612 176.721L327.519 112.391C325.841 111.42 323.934 110.909 321.993 110.909C320.052 110.909 318.145 111.42 316.467 112.391L251.264 150.53C250.381 151.031 249.648 151.756 249.138 152.631C248.628 153.505 248.359 154.498 248.359 155.509C248.359 156.52 248.628 157.513 249.138 158.388C249.648 159.262 250.381 159.987 251.264 160.489Z" fill="#A2C609"/>
<path d="M264.146 155.064L283.73 166.472C284.198 166.754 284.734 166.902 285.281 166.902C285.827 166.902 286.363 166.754 286.831 166.472L297.758 159.578C298.007 159.426 298.214 159.213 298.357 158.959C298.5 158.706 298.575 158.419 298.575 158.128C298.575 157.837 298.5 157.551 298.357 157.297C298.214 157.043 298.007 156.831 297.758 156.679L277.237 144.939C276.808 144.694 276.318 144.576 275.824 144.598C275.33 144.62 274.853 144.781 274.448 145.064L264.042 152.29C263.824 152.454 263.65 152.669 263.533 152.915C263.416 153.161 263.36 153.432 263.371 153.704C263.381 153.976 263.457 154.241 263.592 154.478C263.727 154.715 263.917 154.916 264.146 155.064Z" fill="white"/>
<path d="M358.841 205.273C364.553 205.273 369.184 202.038 369.184 198.047C369.184 194.056 364.553 190.821 358.841 190.821C353.128 190.821 348.497 194.056 348.497 198.047C348.497 202.038 353.128 205.273 358.841 205.273Z" fill="#FF4700"/>
<path d="M369.975 211.547C375.688 211.547 380.319 208.312 380.319 204.321C380.319 200.33 375.688 197.095 369.975 197.095C364.262 197.095 359.631 200.33 359.631 204.321C359.631 208.312 364.262 211.547 369.975 211.547Z" fill="#FFDF24"/>
<path d="M286.561 129.908L412.223 202.623L431.62 191.298L304.376 119.493L286.561 129.908Z" fill="#513F2C"/>
<path style="mix-blend-mode:multiply" d="M469.477 118.727L504.858 139.597C504.858 139.597 493.89 158.729 466.855 170.034L425.647 147.983" fill="url(#paint3_linear_3_3)"/>
<path d="M440.694 152.559C458.832 152.559 473.535 142.26 473.535 129.556C473.535 116.851 458.832 106.552 440.694 106.552C422.556 106.552 407.853 116.851 407.853 129.556C407.853 142.26 422.556 152.559 440.694 152.559Z" fill="#4940BF"/>
<path d="M440.673 125.994C454.259 125.994 465.273 121.508 465.273 115.973C465.273 110.439 454.259 105.952 440.673 105.952C427.087 105.952 416.074 110.439 416.074 115.973C416.074 121.508 427.087 125.994 440.673 125.994Z" fill="#974C26"/>
<path d="M439.758 99.2644C439.758 94.7507 439.612 90.2163 439.237 85.7234C439.14 84.5501 439.036 83.3837 438.925 82.2242L438.655 79.926C438.551 79.2427 438.28 77.5035 438.301 77.5864C438.148 76.6753 437.989 75.7574 437.822 74.8326C435.13 59.4916 429.131 44.9125 420.236 32.0977C416.896 40.0121 415.231 48.5263 415.345 57.1092C415.345 59.5938 415.533 62.0577 415.762 64.5423C415.762 65.2048 415.762 65.4947 415.762 65.5982C415.762 65.7018 415.761 65.4533 415.866 66.0123C416.074 67.2339 416.282 68.4348 416.532 69.6564C417.548 74.2316 418.89 78.729 420.548 83.1146C422.003 87.1877 423.777 91.1408 425.855 94.937C428.082 99.2022 430.517 103.364 433.119 107.36C435.2 110.528 437.094 113.364 439.029 116.077C439.487 110.569 439.758 104.917 439.758 99.2644ZM426.833 48.4753C426.919 47.8865 426.877 47.2863 426.709 46.7154C427.347 47.3503 427.964 48.006 428.561 48.6824C428.006 48.527 427.43 48.4571 426.854 48.4753H426.833Z" fill="#999A1C"/>
<path d="M448.228 102.763C450.684 98.9538 453.015 95.082 455.158 91.0859C455.713 90.0507 456.261 89.0085 456.803 87.9595L457.843 85.889L458.821 83.8185C459.196 82.9627 459.557 82.1069 459.904 81.2511C465.969 66.9114 468.844 51.436 468.332 35.8867C461.237 40.6983 455.209 46.9066 450.621 54.1277C449.289 56.1982 448.103 58.3929 446.938 60.5877L446.438 61.5194C446.438 61.5194 446.438 61.3951 446.293 61.9335C445.814 63.0722 445.335 64.211 444.877 65.3498C443.168 69.745 441.777 74.2564 440.715 78.8494C439.727 83.057 439.073 87.3353 438.759 91.645C438.322 96.4278 438.113 101.252 438.093 106.138C438.093 109.907 438.093 113.323 438.322 116.636C441.86 112.101 445.21 107.505 448.228 102.763ZM464.878 53.0718C465.269 52.6274 465.56 52.105 465.731 51.5396C465.911 52.423 466.071 53.3064 466.21 54.1898C465.85 53.7646 465.429 53.3948 464.961 53.0925L464.878 53.0718Z" fill="#999A1C"/>
<path d="M448.062 114.027C450.628 112.771 453.14 111.391 455.596 109.886L457.489 108.727L458.717 107.94L459.945 107.091L461.36 106.056C469.269 100.271 475.828 92.8549 480.591 84.3155C475.176 84.6625 469.891 86.1143 465.065 88.5807C463.671 89.2846 462.318 90.0714 460.903 90.8789L460.341 91.2309C460.341 91.2309 460.341 91.2309 460.133 91.4172L458.259 92.8045C455.92 94.6332 453.716 96.626 451.662 98.7675C449.768 100.7 448.028 102.777 446.459 104.979C444.669 107.422 442.983 109.948 441.423 112.536C440.195 114.607 439.133 116.449 438.134 118.271C441.568 117.029 444.857 115.601 448.062 114.027ZM473.202 92.5974C473.559 92.483 473.886 92.2921 474.16 92.0384C473.979 92.5767 473.778 93.1012 473.556 93.612C473.493 93.2506 473.374 92.9014 473.202 92.5767V92.5974Z" fill="#999A1C"/>
<path d="M439.758 99.2644C439.758 94.7507 439.612 90.2163 439.237 85.7234C439.14 84.5501 439.036 83.3837 438.925 82.2242L438.655 79.926C438.551 79.2427 438.28 77.5035 438.301 77.5864C438.148 76.6753 437.989 75.7574 437.822 74.8326C435.13 59.4916 429.131 44.9125 420.236 32.0977C416.896 40.0121 415.231 48.5263 415.345 57.1092C415.345 59.5938 415.533 62.0577 415.762 64.5423C415.762 65.2048 415.762 65.4947 415.762 65.5982C415.762 65.7018 415.761 65.4533 415.866 66.0123C416.074 67.2339 416.282 68.4348 416.532 69.6564C417.548 74.2316 418.89 78.729 420.548 83.1146C422.003 87.1877 423.777 91.1408 425.855 94.937C428.082 99.2022 430.517 103.364 433.119 107.36C435.2 110.528 437.094 113.364 439.029 116.077C439.487 110.569 439.758 104.917 439.758 99.2644ZM426.833 48.4753C426.919 47.8865 426.877 47.2863 426.709 46.7154C427.347 47.3503 427.964 48.006 428.561 48.6824C428.006 48.527 427.43 48.4571 426.854 48.4753H426.833Z" fill="#999A1C"/>
<path d="M448.228 102.763C450.684 98.9538 453.015 95.082 455.158 91.0859C455.713 90.0507 456.261 89.0085 456.803 87.9595L457.843 85.889L458.821 83.8185C459.196 82.9627 459.557 82.1069 459.904 81.2511C465.969 66.9114 468.844 51.436 468.332 35.8867C461.237 40.6983 455.209 46.9066 450.621 54.1277C449.289 56.1982 448.103 58.3929 446.938 60.5877L446.438 61.5194C446.438 61.5194 446.438 61.3951 446.293 61.9335C445.814 63.0722 445.335 64.211 444.877 65.3498C443.168 69.745 441.777 74.2564 440.715 78.8494C439.727 83.057 439.073 87.3353 438.759 91.645C438.322 96.4278 438.113 101.252 438.093 106.138C438.093 109.907 438.093 113.323 438.322 116.636C441.86 112.101 445.21 107.505 448.228 102.763ZM464.878 53.0718C465.269 52.6274 465.56 52.105 465.731 51.5396C465.911 52.423 466.071 53.3064 466.21 54.1898C465.85 53.7646 465.429 53.3948 464.961 53.0925L464.878 53.0718Z" fill="#999A1C"/>
<path d="M448.062 114.027C450.628 112.771 453.14 111.391 455.596 109.886L457.489 108.727L458.717 107.94L459.945 107.091L461.36 106.056C469.269 100.271 475.828 92.8549 480.591 84.3155C475.176 84.6625 469.891 86.1143 465.065 88.5807C463.671 89.2846 462.318 90.0714 460.903 90.8789L460.341 91.2309C460.341 91.2309 460.341 91.2309 460.133 91.4172L458.259 92.8045C455.92 94.6332 453.716 96.626 451.662 98.7675C449.768 100.7 448.028 102.777 446.459 104.979C444.669 107.422 442.983 109.948 441.423 112.536C440.195 114.607 439.133 116.449 438.134 118.271C441.568 117.029 444.857 115.601 448.062 114.027ZM473.202 92.5974C473.559 92.483 473.886 92.2921 474.16 92.0384C473.979 92.5767 473.778 93.1012 473.556 93.612C473.493 93.2506 473.374 92.9014 473.202 92.5767V92.5974Z" fill="#999A1C"/>
<defs>
<linearGradient id="paint0_linear_3_3" x1="378.466" y1="297.431" x2="445.074" y2="372.765" gradientUnits="userSpaceOnUse">
<stop stop-color="#7F3500"/>
<stop offset="1" stop-color="white"/>
</linearGradient>
<linearGradient id="paint1_linear_3_3" x1="592.622" y1="227.531" x2="648.452" y2="277.882" gradientUnits="userSpaceOnUse">
<stop stop-color="#7F3500"/>
<stop offset="1" stop-color="white"/>
</linearGradient>
<linearGradient id="paint2_linear_3_3" x1="315.781" y1="172.642" x2="367.263" y2="230.859" gradientUnits="userSpaceOnUse">
<stop stop-color="#7F3500"/>
<stop offset="1" stop-color="white"/>
</linearGradient>
<linearGradient id="paint3_linear_3_3" x1="445.46" y1="122.164" x2="480.765" y2="161.084" gradientUnits="userSpaceOnUse">
<stop stop-color="#78B46A"/>
<stop offset="0.03" stop-color="#7F3500"/>
<stop offset="1" stop-color="white"/>
</linearGradient>
</defs>
</svg>
